<?xml version="1.0" encoding="UTF-8" standalone="no"?>
<svg
   version="1.1"
   viewBox="0 0 55.562526 60.854168"
   height="230"
   width="210">
  <defs
     id="defs2" />
  <metadata
     id="metadata5">
    <rdf:RDF>
      <cc:Work
         rdf:about="">
        <dc:format>image/svg+xml</dc:format>
        <dc:type
           rdf:resource="http://purl.org/dc/dcmitype/StillImage" />
        <dc:title></dc:title>
      </cc:Work>
    </rdf:RDF>
  </metadata>
  <g
     transform="translate(0,-236.14558)"
     id="layer2">
    <g
       id="g255"
       transform="translate(-23.160843,194.88667)">
      <path
         style="opacity:1;fill:#b3b3b3;fill-opacity:1;stroke:none;stroke-width:0.26458332"
         d="m 52.241427,76.061677 c -2.51355,0.47351 -12.697012,0.31571 -18.468438,0 -2.377029,-0.130029 -7.84126,-1.251857 -7.84126,-3.172855 0,-1.920998 5.59426,-3.032572 7.84126,-3.29263 5.709119,-0.660749 16.393799,-0.416596 18.945717,0 2.551918,0.416596 2.917004,0.728775 2.86756,3.29263 -0.04944,2.563855 -0.831289,2.699345 -3.344839,3.172855 z"
         id="path186" />
      <circle
         r="1.3002898"
         cy="72.765022"
         cx="30.483715"
         id="circle189"
         style="opacity:1;fill:#4d4d4d;stroke:none;stroke-width:0.26458332" />
      <circle
         style="opacity:1;fill:#4d4d4d;stroke:none;stroke-width:0.26458332"
         id="circle191"
         cx="40.934765"
         cy="72.765022"
         r="1.3002898" />
      <circle
         r="1.3002898"
         cy="72.765022"
         cx="51.385815"
         id="circle193"
         style="opacity:1;fill:#4d4d4d;stroke:none;stroke-width:0.26458332" />
    </g>
  </g>
  <g
     transform="translate(0,-236.14558)"
     id="layer3">
    <g
       transform="translate(-24.261055,201.77001)"
       id="g132">
      <path
         style="opacity:1;fill:#b3b3b3;stroke:none;stroke-width:0.25979471"
         d="m 29.149643,35.861698 c -0.06771,0 -0.122476,0.07357 -0.122476,0.165365 v 0.661974 h -1.214911 c -0.432215,0 -0.780314,0.232238 -0.780314,0.520382 v 7.469312 h 1.735293 v 1.084689 c 0,0.0918 0.06178,0.16588 0.138494,0.16588 h 2.674255 c 0.07672,0 0.138493,-0.07408 0.138493,-0.16588 v -1.084689 h 1.293977 v 1.084689 c 0,0.0918 0.06178,0.16588 0.138493,0.16588 h 2.674774 c 0.07672,0 0.13849,-0.07408 0.13849,-0.16588 v -1.084689 h 0.443902 c 0.432213,0 0.780315,0.232238 0.780315,0.52038 v 0.165365 h 0.06511 v 0.188618 c 0,0.0918 0.06177,0.165884 0.138494,0.165884 h 2.071708 v 0.614431 c 0,0.0918 0.06177,0.165883 0.138491,0.165883 h 3.493844 c 0.07672,0 0.138494,-0.07408 0.138494,-0.165883 v -0.614431 h 0.650089 v 0.679545 c 0,0.0918 0.06178,0.16588 0.138493,0.16588 h 9.410277 c 0.07672,0 0.138493,-0.07408 0.138493,-0.16588 v -0.679545 h 0.910024 v 0.679545 c 0,0.0918 0.06177,0.16588 0.138491,0.16588 h 3.949113 c 0.06612,0 0.118356,-0.05629 0.132291,-0.130225 h 1.012344 c 0.02531,0.03868 0.0631,0.06511 0.107487,0.06511 h 1.608685 c 0.01224,0 0.02333,-0.0047 0.03462,-0.0083 0.02495,0.04321 0.06474,0.07338 0.112139,0.07338 h 3.103686 c 0.07672,0 0.138494,-0.07408 0.138494,-0.16588 v -0.679545 h 0.7152 v 0.744656 c 0,0.0918 0.06177,0.165365 0.138494,0.165365 h 2.128552 c 0.07672,0 0.138493,-0.07357 0.138493,-0.165365 v -1.099158 h 0.550871 v 0.366387 c 0,0.0918 0.04595,0.16588 0.102835,0.16588 h 1.983343 c 0.05689,0 0.10232,-0.07408 0.10232,-0.16588 v -0.366387 h 0.414443 v 0.366387 c 0,0.0918 0.04313,0.16588 0.09664,0.16588 h 1.865519 c 0.05351,0 0.09663,-0.07408 0.09663,-0.16588 v -0.366387 h 0.34675 v 0.366387 c 0,0.0918 0.04313,0.16588 0.09663,0.16588 h 1.865519 c 0.05351,0 0.09664,-0.07408 0.09664,-0.16588 v -0.366387 h 0.48369 c 0.432218,0 0.780315,-0.232241 0.780315,-0.52038 V 37.4554 c -0.03464,0.0031 -0.06895,0.0067 -0.104902,0.0067 H 64.88441 c -0.432215,0 -0.779796,-0.231722 -0.779796,-0.519867 V 36.689037 H 64.0395 v -0.166396 c 0,-0.0918 -0.06177,-0.165884 -0.138493,-0.165884 h -3.168798 c -0.07672,0 -0.138491,0.07408 -0.138494,0.165884 v 0.166396 h -3.706233 v -0.166396 c 0,-0.0918 -0.115564,-0.165884 -0.259416,-0.165884 h -0.455784 c -0.143849,0 -0.259932,0.07408 -0.259932,0.165884 V 36.32782 c 0,-0.0918 -0.06178,-0.165883 -0.138494,-0.165883 h -1.088305 c -0.07672,0 -0.138493,0.07408 -0.138493,0.165883 v 0.361217 h -1.465543 c 0.02121,-0.0291 0.03514,-0.06618 0.03514,-0.108003 v -0.188619 c 0,-0.0918 -0.06177,-0.165364 -0.138494,-0.165364 h -1.218012 c -0.07672,0 -0.138493,0.07356 -0.138493,0.165364 v 0.188619 c 0,0.04182 0.01393,0.0789 0.03514,0.108003 h -1.205611 v -0.491442 c 0,-0.0918 -0.06177,-0.165881 -0.138493,-0.165881 h -2.58382 c -0.07672,0 -0.138494,0.07408 -0.138494,0.165881 v 0.491442 h -12.21114 v -0.661974 c 0,-0.0918 -0.05476,-0.165365 -0.122473,-0.165365 h -2.36058 c -0.06771,0 -0.121958,0.07357 -0.121958,0.165365 v 0.661974 H 31.63218 v -0.661974 c 0,-0.0918 -0.05476,-0.165365 -0.122473,-0.165365 z"
         id="rect21" />
      <circle
         style="opacity:1;fill:#4d4d4d;stroke:none;stroke-width:0.26458332"
         id="path116"
         cx="31.076925"
         cy="41.242043"
         r="1.3002898" />
      <circle
         r="1.3002898"
         cy="41.242043"
         cx="41.527973"
         id="circle118"
         style="opacity:1;fill:#4d4d4d;stroke:none;stroke-width:0.26458332" />
      <circle
         style="opacity:1;fill:#4d4d4d;stroke:none;stroke-width:0.26458332"
         id="circle120"
         cx="51.979023"
         cy="41.242043"
         r="1.3002898" />
      <circle
         r="1.3002898"
         cy="41.242043"
         cx="62.430073"
         id="circle122"
         style="opacity:1;fill:#4d4d4d;stroke:none;stroke-width:0.26458332" />
      <circle
         style="opacity:1;fill:#4d4d4d;stroke:none;stroke-width:0.26458332"
         id="circle124"
         cx="72.881119"
         cy="41.242043"
         r="1.3002898" />
    </g>
  </g>
  <g
     transform="translate(0,-236.14558)"
     id="layer4">
    <g
       transform="translate(-87.994436,219.45936)"
       id="g424">
      <g
         transform="translate(65.404578,-10.7111)"
         id="g249">
        <path
           id="rect195"
           d="m 35.098504,79.372803 c -3.934677,0.110742 -8.281716,-0.200322 -7.259506,1.575882 -2.033474,0.2289 -1.685653,0.423323 -1.981792,1.387434 -0.36928,0.02293 -0.522068,0.557976 -0.492993,1.221583 -0.02898,0.663375 0.123806,1.198113 0.492993,1.221033 0.296139,0.964111 -0.05168,1.158531 1.981792,1.387438 -1.02221,1.7762 3.324829,1.465136 7.259506,1.575879 4.944274,1e-5 10.512734,-2.608236 11.037051,-4.157351 h 0.01964 c -0.0023,-0.0088 -0.0071,-0.01812 -0.0098,-0.027 0.0027,-0.009 0.0074,-0.01861 0.0098,-0.02755 h -0.01964 C 45.610878,81.981019 40.042592,79.372792 35.098504,79.372803 Z"
           style="opacity:1;fill:#b3b3b3;fill-opacity:1;stroke:none;stroke-width:0.26425549" />
      </g>
      <circle
         style="opacity:1;fill:#4d4d4d;stroke:none;stroke-width:0.26458332"
         id="circle223"
         cx="95.63237"
         cy="72.728088"
         r="1.3002898" />
      <circle
         r="1.3002898"
         cy="72.728088"
         cx="106.08341"
         id="circle225"
         style="opacity:1;fill:#4d4d4d;stroke:none;stroke-width:0.26458332" />
    </g>
  </g>
  <g
     transform="translate(0,-236.14558)"
     id="layer5">
    <g
       id="g268"
       transform="translate(-23.615842,203.96268)">
      <path
         style="opacity:1;fill:#b3b3b3;fill-opacity:1;stroke:none;stroke-width:0.28859925"
         d="m 66.379793,51.375255 c 0.165173,1.962953 -9.187495,4.485999 -19.959448,4.485999 -10.771953,0 -19.998764,-2.714082 -20.033514,-4.485999 -0.03475,-1.771918 8.797408,-4.486 19.569361,-4.486 10.771953,0 20.263617,2.58471 20.423601,4.486 z"
         id="path134" />
      <circle
         r="1.3002898"
         cy="51.440269"
         cx="30.743773"
         id="circle145"
         style="opacity:1;fill:#4d4d4d;stroke:none;stroke-width:0.26458332" />
      <circle
         style="opacity:1;fill:#4d4d4d;stroke:none;stroke-width:0.26458332"
         id="circle147"
         cx="41.19482"
         cy="51.440269"
         r="1.3002898" />
      <circle
         r="1.3002898"
         cy="51.440269"
         cx="51.64587"
         id="circle149"
         style="opacity:1;fill:#4d4d4d;stroke:none;stroke-width:0.26458332" />
      <circle
         style="opacity:1;fill:#4d4d4d;stroke:none;stroke-width:0.26458332"
         id="circle151"
         cx="62.09692"
         cy="51.440269"
         r="1.3002898" />
    </g>
  </g>
  <g
     transform="translate(0,-236.14558)"
     id="layer6">
    <g
       id="g261"
       transform="translate(-23.541881,217.71793)">
      <path
         style="opacity:1;fill:#b3b3b3;fill-opacity:1;stroke:none;stroke-width:0.3048318"
         d="m 56.367562,62.265179 c 0,2.021919 -6.491079,3.54329 -14.498231,3.54329 -8.007152,0 -15.556565,-1.586385 -15.556564,-3.54329 -1e-6,-1.956905 7.549412,-3.54329 15.556564,-3.54329 8.007152,0 14.498231,1.521371 14.498231,3.54329 z"
         id="path177" />
      <circle
         style="opacity:1;fill:#4d4d4d;stroke:none;stroke-width:0.26458332"
         id="circle180"
         cx="30.678759"
         cy="62.232674"
         r="1.3002898" />
      <circle
         r="1.3002898"
         cy="62.232674"
         cx="41.129807"
         id="circle182"
         style="opacity:1;fill:#4d4d4d;stroke:none;stroke-width:0.26458332" />
      <circle
         style="opacity:1;fill:#4d4d4d;stroke:none;stroke-width:0.26458332"
         id="circle184"
         cx="51.580856"
         cy="62.232674"
         r="1.3002898" />
    </g>
  </g>
</svg>
